<?xml version="1.0" ?><svg data-name="Layer 1" id="Layer_1" viewBox="0 0 64 64" xmlns="http://www.w3.org/2000/svg"><defs><style>.cls-1{fill:none;stroke:#ffb90b;stroke-linecap:round;stroke-linejoin:round;stroke-width:2px;}</style></defs><title/><path class="cls-1" d="M55.47,37a24.06,24.06,0,0,0,0-10H48.25A16.88,16.88,0,0,0,47,24l5.11-5.11a24.12,24.12,0,0,0-7.07-7.07L40,17a16.88,16.88,0,0,0-3-1.23V8.53a24.06,24.06,0,0,0-10,0v7.22A16.88,16.88,0,0,0,24,17l-5.11-5.11a24.12,24.12,0,0,0-7.07,7.07L17,24a16.88,16.88,0,0,0-1.23,3H8.53a24.06,24.06,0,0,0,0,10h7.22A16.88,16.88,0,0,0,17,40l-5.11,5.11A24.11,24.11,0,0,0,15,49h0a24.11,24.11,0,0,0,3.91,3.16L24,47a16.88,16.88,0,0,0,3,1.23v7.22a24.06,24.06,0,0,0,10,0V48.25A16.88,16.88,0,0,0,40,47l5.11,5.11A24.11,24.11,0,0,0,49,49h0a24.11,24.11,0,0,0,3.16-3.91L47,40a16.88,16.88,0,0,0,1.23-3Z"/><line class="cls-1" x1="32" x2="32" y1="26" y2="38"/><line class="cls-1" x1="26" x2="38" y1="32" y2="32"/></svg>